<?xml version="1.0" encoding="UTF-8"?>
<svg width="21px" height="21px" viewBox="0 0 21 21" version="1.1" xmlns="http://www.w3.org/2000/svg" xmlns:xlink="http://www.w3.org/1999/xlink">
    <!-- Generator: Sketch 55.1 (78136) - https://sketchapp.com -->
    <title>iconspace_Focus_25px</title>
    <desc>Created with Sketch.</desc>
    <g id="Line-Color" stroke="none" stroke-width="1" fill="none" fill-rule="evenodd">
        <g id="UI-Camera-Line-Color" transform="translate(-227.000000, -27.000000)">
            <g id="iconspace_Focus_25px" transform="translate(225.000000, 25.000000)">
                <polygon id="Path" points="0 0 25 0 25 25 0 25"></polygon>
                <path d="M5.5,3 C4.11928813,3 3,4.11928813 3,5.5 L3,19.5 C3,20.8807119 4.11928813,22 5.5,22 L19.5,22 C20.8807119,22 22,20.8807119 22,19.5 L22,5.5 C22,4.11928813 20.8807119,3 19.5,3 L5.5,3 Z M5.5,2 L19.5,2 C21.4329966,2 23,3.56700338 23,5.5 L23,19.5 C23,21.4329966 21.4329966,23 19.5,23 L5.5,23 C3.56700338,23 2,21.4329966 2,19.5 L2,5.5 C2,3.56700338 3.56700338,2 5.5,2 Z" id="Path" fill="#3B5AFB" fill-rule="nonzero"></path>
                <path d="M6,8.5 C6,8.77614237 5.77614237,9 5.5,9 C5.22385763,9 5,8.77614237 5,8.5 L5,6.5 C5,5.67157288 5.67157288,5 6.5,5 L8.5,5 C8.77614237,5 9,5.22385763 9,5.5 C9,5.77614237 8.77614237,6 8.5,6 L6.5,6 C6.22385763,6 6,6.22385763 6,6.5 L6,8.5 Z M16.5,6 C16.2238576,6 16,5.77614237 16,5.5 C16,5.22385763 16.2238576,5 16.5,5 L18.5,5 C19.3284271,5 20,5.67157288 20,6.5 L20,8.5 C20,8.77614237 19.7761424,9 19.5,9 C19.2238576,9 19,8.77614237 19,8.5 L19,6.5 C19,6.22385763 18.7761424,6 18.5,6 L16.5,6 Z M8.5,19 C8.77614237,19 9,19.2238576 9,19.5 C9,19.7761424 8.77614237,20 8.5,20 L6.5,20 C5.67157288,20 5,19.3284271 5,18.5 L5,16.5 C5,16.2238576 5.22385763,16 5.5,16 C5.77614237,16 6,16.2238576 6,16.5 L6,18.5 C6,18.7761424 6.22385763,19 6.5,19 L8.5,19 Z M19,16.5 C19,16.2238576 19.2238576,16 19.5,16 C19.7761424,16 20,16.2238576 20,16.5 L20,18.5 C20,19.3284271 19.3284271,20 18.5,20 L16.5,20 C16.2238576,20 16,19.7761424 16,19.5 C16,19.2238576 16.2238576,19 16.5,19 L18.5,19 C18.7761424,19 19,18.7761424 19,18.5 L19,16.5 Z" id="Path" fill="#3B5AFB" fill-rule="nonzero"></path>
                <path d="M13,12 L14.5,12 C14.7761424,12 15,12.2238576 15,12.5 C15,12.7761424 14.7761424,13 14.5,13 L13,13 L13,14.5 C13,14.7761424 12.7761424,15 12.5,15 C12.2238576,15 12,14.7761424 12,14.5 L12,13 L10.5,13 C10.2238576,13 10,12.7761424 10,12.5 C10,12.2238576 10.2238576,12 10.5,12 L12,12 L12,10.5 C12,10.2238576 12.2238576,10 12.5,10 C12.7761424,10 13,10.2238576 13,10.5 L13,12 Z" id="Path" fill="#44D5E9" fill-rule="nonzero"></path>
            </g>
        </g>
    </g>
</svg>