<?xml version="1.0" encoding="UTF-8"?>
<svg width="17px" height="19px" viewBox="0 0 17 19" version="1.1" xmlns="http://www.w3.org/2000/svg" xmlns:xlink="http://www.w3.org/1999/xlink">
    <!-- Generator: Sketch 55.1 (78136) - https://sketchapp.com -->
    <title>iconspace_Sign Out_25px</title>
    <desc>Created with Sketch.</desc>
    <g id="Glyph-Color" stroke="none" stroke-width="1" fill="none" fill-rule="evenodd">
        <g id="User-Interface-Solid-Color" transform="translate(-229.000000, -78.000000)">
            <g id="iconspace_Sign-Out_25px" transform="translate(225.000000, 75.000000)">
                <polygon id="Path" points="0 0 25 0 25 25 0 25"></polygon>
                <polygon id="Path" points="0 0 25 0 25 25 0 25"></polygon>
                <path d="M17.7161954,13.25 L10.5,13.25 C10.0857864,13.25 9.75,12.9142136 9.75,12.5 C9.75,12.0857864 10.0857864,11.75 10.5,11.75 L18.0771309,11.75 L17.166145,10.8267816 C16.8752116,10.5319416 16.8783785,10.0570785 17.1732185,9.76614504 C17.4680585,9.47521162 17.9429217,9.47837852 18.2338551,9.77321852 L20.2338551,11.800074 C20.5234175,12.0935246 20.5218431,12.5656726 20.2303302,12.8571856 L18.2303302,14.8571856 C17.9374369,15.1500788 17.4625632,15.1500788 17.16967,14.8571856 C16.8767768,14.5642924 16.8767768,14.0894187 17.16967,13.7965255 L17.7161954,13.25 Z" id="Path" fill="#f1c40f" fill-rule="nonzero"></path>
                <path d="M15.75,18.1 L15.75,16.5 C15.75,15.5 17.25,15.5 17.25,16.5 L17.25,18.1 C17.25,19.85325 15.6739103,21.25 13.75,21.25 L8.25,21.25 C6.32608974,21.25 4.75,19.85325 4.75,18.1 L4.75,6.9 C4.75,5.14675 6.32608974,3.75 8.25,3.75 L13.75,3.75 C15.6739103,3.75 17.25,5.14675 17.25,6.9 L17.25,8.5 C17.25,8.91421356 16.9142136,9.25 16.5,9.25 C16.0857864,9.25 15.75,8.91421356 15.75,8.5 L15.75,6.9 C15.75,6.00485775 14.8651662,5.25 13.75,5.25 L8.25,5.25 C7.1348338,5.25 6.25,6.00485775 6.25,6.9 L6.25,18.1 C6.25,18.9951422 7.1348338,19.75 8.25,19.75 L13.75,19.75 C14.8651662,19.75 15.75,18.9951422 15.75,18.1 Z" id="Path" fill="#e67e22" fill-rule="nonzero"></path>
            </g>
        </g>
    </g>
</svg>
