<?xml version="1.0" encoding="UTF-8"?>
<svg width="19px" height="21px" viewBox="0 0 19 21" version="1.1" xmlns="http://www.w3.org/2000/svg" xmlns:xlink="http://www.w3.org/1999/xlink">
    <!-- Generator: Sketch 55.1 (78136) - https://sketchapp.com -->
    <title>iconspace_Book a_25px</title>
    <desc>Created with Sketch.</desc>
    <g id="Line-Color" stroke="none" stroke-width="1" fill="none" fill-rule="evenodd">
        <g id="Folder-and-Document-Line-Color" transform="translate(-228.000000, -277.000000)">
            <g id="iconspace_Book-a_25px" transform="translate(225.000000, 275.000000)">
                <polygon id="path" points="0 0 25 0 25 25 0 25"></polygon>
                <path d="M6,2.5 C6,2.22385763 6.22385763,2 6.5,2 C6.77614237,2 7,2.22385763 7,2.5 L7,18.5 C7,18.7761424 6.77614237,19 6.5,19 C6.22385763,19 6,18.7761424 6,18.5 L6,2.5 Z M10.5,9 C10.2238576,9 10,8.77614237 10,8.5 C10,8.22385763 10.2238576,8 10.5,8 L14.5,8 C14.7761424,8 15,8.22385763 15,8.5 C15,8.77614237 14.7761424,9 14.5,9 L10.5,9 Z M10.5,12 C10.2238576,12 10,11.7761424 10,11.5 C10,11.2238576 10.2238576,11 10.5,11 L16.5,11 C16.7761424,11 17,11.2238576 17,11.5 C17,11.7761424 16.7761424,12 16.5,12 L10.5,12 Z" id="path" fill="#44D5E9" fill-rule="nonzero"></path>
                <path d="M3,20.5 L3,3.5 C3,2.67157288 3.67157288,2 4.5,2 L20.5,2 C21.3284271,2 22,2.67157288 22,3.5 L22,20.5 C22,21.8807119 20.8807119,23 19.5,23 L5.5,23 C4.11928813,23 3,21.8807119 3,20.5 Z M21,18.4998169 L21,3.5 C21,3.22385763 20.7761424,3 20.5,3 L4.5,3 C4.22385763,3 4,3.22385763 4,3.5 L4,18.4998169 C4.41783027,18.1859724 4.93719704,18 5.5,18 L19.5,18 C20.062803,18 20.5821697,18.1859724 21,18.4998169 L21,18.4998169 Z M5.5,19 C4.67157288,19 4,19.6715729 4,20.5 C4,21.3284271 4.67157288,22 5.5,22 L19.5,22 C20.3284271,22 21,21.3284271 21,20.5 C21,19.6715729 20.3284271,19 19.5,19 L5.5,19 Z" id="path" fill="#3B5AFB" fill-rule="nonzero"></path>
            </g>
        </g>
    </g>
</svg>