<?xml version="1.0" encoding="UTF-8"?>
<svg width="21px" height="21px" viewBox="0 0 21 21" version="1.1" xmlns="http://www.w3.org/2000/svg" xmlns:xlink="http://www.w3.org/1999/xlink">
    <!-- Generator: Sketch 55.1 (78136) - https://sketchapp.com -->
    <title>Cellular Network</title>
    <desc>Created with Sketch.</desc>
    <g id="Line-Color" stroke="none" stroke-width="1" fill="none" fill-rule="evenodd">
        <g id="Comunications-Line-Color" transform="translate(-327.000000, -27.000000)">
            <g id="Cellular-Network" transform="translate(325.000000, 25.000000)">
                <polygon id="Path" points="0 0 25 0 25 25 0 25"></polygon>
                <polygon id="Path" points="0 0 25 0 25 25 0 25"></polygon>
                <path d="M17.2709557,21.9330693 C20.7581447,20.1444957 23,16.5429031 23,12.5408143 C23,6.71973818 18.2994468,2 12.5,2 C6.7005532,2 2,6.71973818 2,12.5408143 C2,16.5527024 4.25288488,20.1616404 7.75333689,21.9454889 C7.99937361,22.0708705 8.30046765,21.9730602 8.42584924,21.7270235 C8.55123083,21.4809867 8.45342052,21.1798927 8.20738379,21.0545111 C5.03913213,19.4399536 3,16.1734301 3,12.5408143 C3,7.27111319 7.2537518,3 12.5,3 C17.7462482,3 22,7.27111319 22,12.5408143 C22,16.1645655 19.9708553,19.4244336 16.8145842,21.04328 C16.5688756,21.1693035 16.4718518,21.4706518 16.5978753,21.7163604 C16.7238988,21.9620689 17.0252471,22.0590928 17.2709557,21.9330693 Z" id="Path" fill="#44D5E9" fill-rule="nonzero"></path>
                <path d="M12,15.9645556 C10.3038529,15.7219407 9,14.263236 9,12.5 C9,10.5670034 10.5670034,9 12.5,9 C14.4329966,9 16,10.5670034 16,12.5 C16,14.263236 14.6961471,15.7219407 13,15.9645556 L13,22.5 C13,22.7761424 12.7761424,23 12.5,23 C12.2238576,23 12,22.7761424 12,22.5 L12,15.9645556 L12,15.9645556 Z M12,14.9499909 L12,12.5 C12,12.2238576 12.2238576,12 12.5,12 C12.7761424,12 13,12.2238576 13,12.5 L13,14.9499909 C14.1411202,14.7183558 15,13.709479 15,12.5 C15,11.1192881 13.8807119,10 12.5,10 C11.1192881,10 10,11.1192881 10,12.5 C10,13.709479 10.8588798,14.7183558 12,14.9499909 L12,14.9499909 Z M15.5993796,17.9405949 C15.3567465,18.0694829 15.0531699,17.9816894 14.9213223,17.7445028 C14.7894748,17.5073161 14.8792842,17.2105539 15.1219173,17.081666 C16.8814132,16.1470127 18,14.3471237 18,12.3540933 C18,9.38471197 15.5375661,6.97755281 12.5,6.97755281 C9.46243388,6.97755281 7,9.38471197 7,12.3540933 C7,14.3417413 8.11251567,16.1375184 9.86454198,17.074449 C10.1068035,17.2040031 10.1957593,17.5010108 10.0632303,17.7378343 C9.93070123,17.9746578 9.62687341,18.0616167 9.38461185,17.9320626 C7.31504455,16.8253207 6,14.7026299 6,12.3540933 C6,8.84482446 8.91014913,6 12.5,6 C16.0898509,6 19,8.84482446 19,12.3540933 C19,14.7089972 17.6777884,16.8365334 15.5993796,17.9405949 Z" id="Combined-Shape" fill="#3B5AFB" fill-rule="nonzero"></path>
            </g>
        </g>
    </g>
</svg>