<?xml version="1.0" encoding="UTF-8"?>
<svg width="21px" height="21px" viewBox="0 0 21 21" version="1.1" xmlns="http://www.w3.org/2000/svg" xmlns:xlink="http://www.w3.org/1999/xlink">
    <!-- Generator: Sketch 55.1 (78136) - https://sketchapp.com -->
    <title>iconspace_Close_25px</title>
    <desc>Created with Sketch.</desc>
    <g id="Line-Color" stroke="none" stroke-width="1" fill="none" fill-rule="evenodd">
        <g id="User-Interface-Line-Color" transform="translate(-27.000000, -227.000000)">
            <g id="iconspace_Close_25px" transform="translate(25.000000, 225.000000)">
                <polygon id="Path" points="0 0 25 0 25 25 0 25"></polygon>
                <polygon id="Path" points="0 0 25 0 25 25 0 25"></polygon>
                <path d="M5.5,3 C4.11928813,3 3,4.11928813 3,5.5 L3,19.5 C3,20.8807119 4.11928813,22 5.5,22 L19.5,22 C20.8807119,22 22,20.8807119 22,19.5 L22,5.5 C22,4.11928813 20.8807119,3 19.5,3 L5.5,3 Z M5.5,2 L19.5,2 C21.4329966,2 23,3.56700338 23,5.5 L23,19.5 C23,21.4329966 21.4329966,23 19.5,23 L5.5,23 C3.56700338,23 2,21.4329966 2,19.5 L2,5.5 C2,3.56700338 3.56700338,2 5.5,2 Z" id="Path" fill="#e67e22" fill-rule="nonzero"></path>
                <path d="M15.14625,9.14625 L12.50025,11.79225 L9.85425,9.14625 C9.75625,9.04825 9.62825,9.00025 9.50025,9.00025 C9.37225,9.00025 9.24425,9.04925 9.14625,9.14625 C8.95125,9.34125 8.95125,9.65825 9.14625,9.85325 L11.79225,12.49925 L9.14625,15.14525 C8.95125,15.34025 8.95125,15.65725 9.14625,15.85225 C9.24425,15.95025 9.37225,15.99825 9.50025,15.99825 C9.62825,15.99825 9.75625,15.94925 9.85425,15.85225 L12.50025,13.20625 L15.14625,15.85225 C15.34125,16.04725 15.65825,16.04725 15.85325,15.85225 C16.04825,15.65725 16.04825,15.34025 15.85325,15.14525 L13.20725,12.49925 L15.85325,9.85325 C16.04825,9.65825 16.04825,9.34225 15.85325,9.14625 C15.65825,8.95125 15.34125,8.95125 15.14625,9.14625 Z" id="Path" fill="#f1c40f"></path>
            </g>
        </g>
    </g>
</svg>
