<?xml version="1.0" encoding="UTF-8"?>
<svg width="21px" height="21px" viewBox="0 0 21 21" version="1.1" xmlns="http://www.w3.org/2000/svg" xmlns:xlink="http://www.w3.org/1999/xlink">
    <!-- Generator: Sketch 55.1 (78136) - https://sketchapp.com -->
    <title>iconspace_Planner number_25px</title>
    <desc>Created with Sketch.</desc>
    <g id="Line-Color" stroke="none" stroke-width="1" fill="none" fill-rule="evenodd">
        <g id="Business-Icon-Line-Color" transform="translate(-327.000000, -77.000000)">
            <g id="iconspace_Planner-number_25px" transform="translate(325.000000, 75.000000)">
                <polygon id="path" points="0 0 25 0 25 25 0 25"></polygon>
                <path d="M22,8 L22,5.5 C22,5.22385763 21.7761424,5 21.5,5 L3.5,5 C3.22385763,5 3,5.22385763 3,5.5 L3,8 L22,8 Z M23,5.5 L23,19.5 C23,21.4329966 21.4329966,23 19.5,23 L5.5,23 C3.56700338,23 2,21.4329966 2,19.5 L2,5.5 C2,4.67157288 2.67157288,4 3.5,4 L21.5,4 C22.3284271,4 23,4.67157288 23,5.5 Z M3,9 L3,19.5 C3,20.8807119 4.11928813,22 5.5,22 L19.5,22 C20.8807119,22 22,20.8807119 22,19.5 L22,9 L3,9 Z" id="path" fill="#3B5AFB" fill-rule="nonzero"></path>
                <path d="M18,2.5 C18,2.22385763 18.2238576,2 18.5,2 C18.7761424,2 19,2.22385763 19,2.5 L19,5.5 C19,5.77614237 18.7761424,6 18.5,6 C18.2238576,6 18,5.77614237 18,5.5 L18,2.5 Z M7,2.5 C7,2.22385763 7.22385763,2 7.5,2 C7.77614237,2 8,2.22385763 8,2.5 L8,5.5 C8,5.77614237 7.77614237,6 7.5,6 C7.22385763,6 7,5.77614237 7,5.5 L7,2.5 Z M7.53517793,13 C7.25903556,13 7.03517793,12.7761424 7.03517793,12.5 C7.03517793,12.2238576 7.25903556,12 7.53517793,12 L10.4895448,12 C10.7656872,12 10.9895448,12.2238576 10.9895448,12.5 L10.9895448,15.0007567 C10.9895448,15.2768991 10.7656872,15.5007567 10.4895448,15.5007567 L8,15.5007567 L8,17 L10.5,17 C10.7761424,17 11,17.2238576 11,17.5 C11,17.7761424 10.7761424,18 10.5,18 L7.5,18 C7.22385763,18 7,17.7761424 7,17.5 L7,15.0007567 C7,14.7246143 7.22385763,14.5007567 7.5,14.5007567 L9.98954478,14.5007567 L9.98954478,13 L7.53517793,13 Z M14.5351779,13 C14.2590356,13 14.0351779,12.7761424 14.0351779,12.5 C14.0351779,12.2238576 14.2590356,12 14.5351779,12 L17.4895448,12 C17.7656872,12 17.9895448,12.2238576 17.9895448,12.5 L17.9895448,15.0007567 C17.9895448,15.2768991 17.7656872,15.5007567 17.4895448,15.5007567 L15,15.5007567 L15,17 L17.5,17 C17.7761424,17 18,17.2238576 18,17.5 C18,17.7761424 17.7761424,18 17.5,18 L14.5,18 C14.2238576,18 14,17.7761424 14,17.5 L14,15.0007567 C14,14.7246143 14.2238576,14.5007567 14.5,14.5007567 L16.9895448,14.5007567 L16.9895448,13 L14.5351779,13 Z" id="path" fill="#44D5E9" fill-rule="nonzero"></path>
            </g>
        </g>
    </g>
</svg>